<?xml version="1.0" encoding="UTF-8"?>
<svg version="1.1" xmlns="http://www.w3.org/2000/svg" width="28" height="28">
<path d="M0 0 C4.79642058 2.39821029 7.60178971 5.20357942 10 10 C10.8565765 14.37028828 10.36877185 17.26245631 8.375 21.25 C5.3809015 24.7168509 2.69192851 27.47238201 -1.953125 28.3828125 C-7.05027553 28.6746341 -10.0736905 27.39090366 -14 24 C-17.39090366 20.0736905 -18.6746341 17.05027553 -18.3828125 11.953125 C-17.47238201 7.30807149 -14.7168509 4.6190985 -11.25 1.625 C-7.26245631 -0.36877185 -4.37028828 -0.8565765 0 0 Z " fill="#075083" transform="translate(18,0)"/>
<path d="M0 0 C3.125 0.25 3.125 0.25 5 1.25 C6.82384691 4.4923945 6.72723707 7.68394453 6.125 11.25 C3.72678971 16.04642058 0.92142058 18.85178971 -3.875 21.25 C-7.89956409 21.95370571 -11.12245134 21.59491814 -14.875 19.875 C-15.535 19.33875 -16.195 18.8025 -16.875 18.25 C-16.875 17.59 -16.875 16.93 -16.875 16.25 C-15.94816406 16.12882812 -15.02132813 16.00765625 -14.06640625 15.8828125 C-12.86886719 15.71523438 -11.67132813 15.54765625 -10.4375 15.375 C-9.24253906 15.21257813 -8.04757812 15.05015625 -6.81640625 14.8828125 C-5.84574219 14.67398437 -4.87507813 14.46515625 -3.875 14.25 C-1.83338498 10.16676996 -2.72614767 5.51716578 -3.875 1.25 C-2.875 0.25 -2.875 0.25 0 0 Z " fill="#595B64" transform="translate(21.875,6.75)"/>
<path d="M0 0 C0.66 0 1.32 0 2 0 C2.16716588 1.97912456 2.33371956 3.95830085 2.5 5.9375 C2.5928125 7.03964844 2.685625 8.14179688 2.78125 9.27734375 C3 12 3 12 3 13 C4.31266518 14.35368596 5.64567325 15.68799596 7 17 C-0.28358209 17.35820896 -0.28358209 17.35820896 -3 16 C-4.63871324 12.72257352 -4.61792637 9.52816027 -4 6 C-2.125 2.5 -2.125 2.5 0 0 Z " fill="#64666D" transform="translate(4,4)"/>
<path d="M0 0 C3.5 1.875 3.5 1.875 6 4 C6 4.66 6 5.32 6 6 C1.71 6.66 -2.58 7.32 -7 8 C-7 7.34 -7 6.68 -7 6 C-7.99 7.32 -8.98 8.64 -10 10 C-10 7.03 -10 4.06 -10 1 C-6.78870258 -0.60564871 -3.48325944 -0.48378603 0 0 Z " fill="#4F5159" transform="translate(18,0)"/>
<path d="M0 0 C0.33 0 0.66 0 1 0 C1.35820896 7.28358209 1.35820896 7.28358209 0 10 C-3.25038898 11.62519449 -6.48909243 11.51912252 -10 11 C-13 9.625 -13 9.625 -15 8 C-15 7.34 -15 6.68 -15 6 C-13.62714844 5.85304688 -13.62714844 5.85304688 -12.2265625 5.703125 C-11.03804687 5.55359375 -9.84953125 5.4040625 -8.625 5.25 C-7.44164062 5.11078125 -6.25828125 4.9715625 -5.0390625 4.828125 C-1.8911392 4.32388702 -1.8911392 4.32388702 -0.5859375 1.921875 C-0.39257812 1.28765625 -0.19921875 0.6534375 0 0 Z " fill="#878991" transform="translate(20,17)"/>
<path d="M0 0 C0.66 0 1.32 0 2 0 C2.33 1.98 2.66 3.96 3 6 C4.32 4.68 5.64 3.36 7 2 C7 2.99 7 3.98 7 5 C10.96 4.34 14.92 3.68 19 3 C19 3.99 19 4.98 19 6 C17.02 6 15.04 6 13 6 C13 6.66 13 7.32 13 8 C10.98177083 7.90234375 8.96354167 7.8046875 6.9453125 7.70703125 C6.30335937 7.80371094 5.66140625 7.90039062 5 8 C2.63307034 10.84826598 2.63307034 10.84826598 3.375 14.1875 C3.58125 15.115625 3.7875 16.04375 4 17 C1.525 16.01 1.525 16.01 -1 15 C-0.7215625 14.0409375 -0.7215625 14.0409375 -0.4375 13.0625 C0.07280864 9.49033952 -0.32637938 6.44166881 -0.84375 2.890625 C-0.8953125 2.26671875 -0.946875 1.6428125 -1 1 C-0.67 0.67 -0.34 0.34 0 0 Z " fill="#A2ABB5" transform="translate(6,2)"/>
<path d="M0 0 C1.4540625 0.0309375 1.4540625 0.0309375 2.9375 0.0625 C2.9375 2.7025 2.9375 5.3425 2.9375 8.0625 C1.6175 8.3925 0.2975 8.7225 -1.0625 9.0625 C-1.7225 7.7425 -2.3825 6.4225 -3.0625 5.0625 C-3.7225 5.0625 -4.3825 5.0625 -5.0625 5.0625 C-3.9375 0.08035714 -3.9375 0.08035714 0 0 Z " fill="#143E61" transform="translate(14.0625,8.9375)"/>
<path d="M0 0 C0.99 0.495 0.99 0.495 2 1 C2 1.66 2 2.32 2 3 C2.66 3 3.32 3 4 3 C4 3.66 4 4.32 4 5 C4.804375 5.28875 5.60875 5.5775 6.4375 5.875 C9 7 9 7 10 9 C7.36 9 4.72 9 2 9 C0.14223235 5.86501708 -0.20140476 3.62528568 0 0 Z " fill="#0C0C17" transform="translate(1,12)"/>
<path d="M0 0 C0.33 0.66 0.66 1.32 1 2 C-0.90354807 4.50828536 -2.00579726 5.00135005 -5.13671875 5.73046875 C-6.30847656 5.88128906 -7.48023438 6.03210938 -8.6875 6.1875 C-9.86699219 6.34605469 -11.04648438 6.50460938 -12.26171875 6.66796875 C-13.16535156 6.77753906 -14.06898437 6.88710938 -15 7 C-15.66 5.68 -16.32 4.36 -17 3 C-14.98177083 3.03255208 -12.96354167 3.06510417 -10.9453125 3.09765625 C-8.91814596 3.12649242 -8.91814596 3.12649242 -7 2 C-5.7625 2.0309375 -5.7625 2.0309375 -4.5 2.0625 C-1.82346261 2.28293845 -1.82346261 2.28293845 0 0 Z " fill="#ACB7C3" transform="translate(19,17)"/>
<path d="M0 0 C1.98 0 3.96 0 6 0 C8.125 4.625 8.125 4.625 7 8 C4.36 6.02 1.72 4.04 -1 2 C-0.67 1.34 -0.34 0.68 0 0 Z " fill="#0B0B15" transform="translate(19,7)"/>
<path d="M0 0 C0.33 0.99 0.66 1.98 1 3 C4.96 2.34 8.92 1.68 13 1 C13 1.99 13 2.98 13 4 C11.02 4 9.04 4 7 4 C7 4.66 7 5.32 7 6 C4.98177083 5.96744792 2.96354167 5.93489583 0.9453125 5.90234375 C-1.08185404 5.87350758 -1.08185404 5.87350758 -3 7 C-2.25 2.25 -2.25 2.25 0 0 Z " fill="#A8BACA" transform="translate(12,4)"/>
<path d="M0 0 C0.33 0 0.66 0 1 0 C1.125 7.75 1.125 7.75 0 10 C-1.98 10 -3.96 10 -6 10 C-5.02526874 8.33073546 -4.04510211 6.66464358 -3.0625 5 C-2.24458984 3.6078125 -2.24458984 3.6078125 -1.41015625 2.1875 C-0.71212891 1.1046875 -0.71212891 1.1046875 0 0 Z " fill="#17171F" transform="translate(20,17)"/>
<path d="M0 0 C1.98 0.99 1.98 0.99 4 2 C3.01 2.495 3.01 2.495 2 3 C2.33 3.66 2.66 4.32 3 5 C3.22622081 6.70363822 3.40888473 8.41328701 3.5625 10.125 C3.64628906 11.03507812 3.73007812 11.94515625 3.81640625 12.8828125 C3.87699219 13.58148438 3.93757813 14.28015625 4 15 C3.01 15 2.02 15 1 15 C1.020625 13.824375 1.04125 12.64875 1.0625 11.4375 C1.06947261 7.52586533 0.64250343 3.85502056 0 0 Z " fill="#BBC4CD" transform="translate(19,10)"/>
<path d="M0 0 C-0.80814651 1.33597652 -1.62163181 2.668725 -2.4375 4 C-2.88996094 4.7425 -3.34242187 5.485 -3.80859375 6.25 C-4.20175781 6.8275 -4.59492188 7.405 -5 8 C-5.33 8 -5.66 8 -6 8 C-6 5.36 -6 2.72 -6 0 C-2.25 -1.125 -2.25 -1.125 0 0 Z " fill="#080813" transform="translate(14,2)"/>
<path d="M0 0 C-1.75 2.0625 -1.75 2.0625 -4 4 C-6.25 3.75 -6.25 3.75 -8 3 C-6 0 -6 0 -4 -0.75 C-2 -1 -2 -1 0 0 Z " fill="#06060E" transform="translate(17,22)"/>
<path d="M0 0 C0.33 0 0.66 0 1 0 C1 1.65 1 3.3 1 5 C-0.32 5.33 -1.64 5.66 -3 6 C-3 4.35 -3 2.7 -3 1 C-2.01 1.33 -1.02 1.66 0 2 C0 1.34 0 0.68 0 0 Z " fill="#0C2745" transform="translate(16,12)"/>
</svg>
