<?xml version="1.0" encoding="UTF-8"?>
<svg version="1.1" xmlns="http://www.w3.org/2000/svg" width="16" height="16">
<path d="M0 0 C5.28 0 10.56 0 16 0 C16.4789399 9.93800284 16.4789399 9.93800284 14.5625 14.1875 C11.29785096 16.496642 9.04062405 16.55979659 5.12109375 16.56640625 C3 16 3 16 1.234375 14.35546875 C-1.11335568 9.87546368 -0.1612263 4.94427308 0 0 Z " fill="#0D145A" transform="translate(0,0)"/>
<path d="M0 0 C2.31 0 4.62 0 7 0 C7.62430008 9.90209296 7.62430008 9.90209296 5.1875 14.1875 C3 16 3 16 0 16 C0 13.69 0 11.38 0 9 C-0.66 9 -1.32 9 -2 9 C-2 7.68 -2 6.36 -2 5 C-1.34 5 -0.68 5 0 5 C0 3.35 0 1.7 0 0 Z " fill="#138ED7" transform="translate(9,0)"/>
<path d="M0 0 C0 1.98 0 3.96 0 6 C-0.99 6 -1.98 6 -3 6 C-3.33 6.66 -3.66 7.32 -4 8 C-4 6.68 -4 5.36 -4 4 C-4.66 4 -5.32 4 -6 4 C-6 2.68 -6 1.36 -6 0 C-2.25 -1.125 -2.25 -1.125 0 0 Z " fill="#8AC0E4" transform="translate(13,5)"/>
<path d="M0 0 C1.32 0 2.64 0 4 0 C3.62952882 2.74148672 3.31412056 4.58593199 1.625 6.8125 C0 8 0 8 -3 8 C-2.67 6.35 -2.34 4.7 -2 3 C-1.01 3 -0.02 3 1 3 C0.67 2.01 0.34 1.02 0 0 Z " fill="#0788D4" transform="translate(12,8)"/>
</svg>
