<?xml version="1.0" encoding="UTF-8"?>
<svg version="1.1" xmlns="http://www.w3.org/2000/svg" width="89" height="23">
<path d="M0 0 C0.66 0 1.32 0 2 0 C2 0.66 2 1.32 2 2 C2.66 2 3.32 2 4 2 C4 1.34 4 0.68 4 0 C7.22412329 -0.08955898 9.88688623 0.22172156 13 1 C13.33 0.67 13.66 0.34 14 0 C14.99 0.66 15.98 1.32 17 2 C16.67 2.99 16.34 3.98 16 5 C18.64 5 21.28 5 24 5 C24.309375 4.360625 24.61875 3.72125 24.9375 3.0625 C26 1 26 1 27 0 C28.76370362 -0.10416471 30.53157571 -0.13853807 32.29833984 -0.14526367 C33.4297641 -0.15164352 34.56118835 -0.15802338 35.72689819 -0.16459656 C37.57524765 -0.16626579 37.57524765 -0.16626579 39.4609375 -0.16796875 C40.71758209 -0.17129715 41.97422668 -0.17462555 43.26895142 -0.17805481 C45.9338941 -0.18312981 48.59873489 -0.18589411 51.26367188 -0.18530273 C54.67912934 -0.1852012 58.09437849 -0.1988411 61.50978661 -0.21607494 C64.76432919 -0.22986863 68.01886963 -0.22928381 71.2734375 -0.23046875 C72.50162201 -0.23765427 73.72980652 -0.24483978 74.99520874 -0.25224304 C76.13293732 -0.24916641 77.27066589 -0.24608978 78.44287109 -0.24291992 C79.94725235 -0.24505745 79.94725235 -0.24505745 81.48202515 -0.24723816 C84 -0 84 -0 87 2 C87 1.34 87 0.68 87 0 C87.66 0 88.32 0 89 0 C89 7.59 89 15.18 89 23 C83.80337522 23.06891398 78.60833894 23.12863294 73.41162109 23.16479492 C71.64431381 23.17987102 69.87704386 23.20033522 68.10986328 23.22631836 C65.56794005 23.26275402 63.02651194 23.27973794 60.484375 23.29296875 C59.69569031 23.30845261 58.90700562 23.32393646 58.09442139 23.33988953 C54.69433549 23.34093 52.42190066 23.25316482 49.46972656 21.48168945 C48.74221191 20.74825317 48.74221191 20.74825317 48 20 C47.505 21.485 47.505 21.485 47 23 C45.68 22.34 44.36 21.68 43 21 C42.34 21.66 41.68 22.32 41 23 C38.3203125 23.30078125 38.3203125 23.30078125 35.125 23.3125 C33.55105469 23.33763672 33.55105469 23.33763672 31.9453125 23.36328125 C28.67128959 22.95945614 27.36041645 22.2516415 25 20 C23.75 17.8125 23.75 17.8125 23 16 C22.7525 16.61875 22.505 17.2375 22.25 17.875 C20.77472123 20.3829739 19.65125048 20.92292949 17 22 C16.34 22.33 15.68 22.66 15 23 C12.7927077 23.07092842 10.58332548 23.08415025 8.375 23.0625 C7.18648438 23.05347656 5.99796875 23.04445313 4.7734375 23.03515625 C3.85820313 23.02355469 2.94296875 23.01195313 2 23 C2 21.35 2 19.7 2 18 C1.34 18.33 0.68 18.66 0 19 C0 12.73 0 6.46 0 0 Z M64 1 C64.66 2.32 65.32 3.64 66 5 C66 3.68 66 2.36 66 1 C65.34 1 64.68 1 64 1 Z M72 1 C72.66 1.66 73.32 2.32 74 3 C74.33 2.34 74.66 1.68 75 1 C74.01 1 73.02 1 72 1 Z M13 3 C12.67 5.64 12.34 8.28 12 11 C14.16263073 10.1955029 14.16263073 10.1955029 14.75 8.125 C15.26802406 5.69990757 15.26802406 5.69990757 13 3 Z M87 3 C88 5 88 5 88 5 Z M11 4 C12 6 12 6 12 6 Z M60 4 C59.67 4.66 59.34 5.32 59 6 C59.99 5.67 60.98 5.34 62 5 C61.34 4.67 60.68 4.34 60 4 Z M32 5 C30.75261777 6.02621107 30.75261777 6.02621107 30.8671875 8.21484375 C30.86976562 9.11332031 30.87234375 10.01179687 30.875 10.9375 C30.87242188 11.83339844 30.86984375 12.72929687 30.8671875 13.65234375 C30.84578587 16.02155555 30.84578587 16.02155555 32 18 C33.89533342 18.46523063 33.89533342 18.46523063 36.0625 18.625 C37.361875 18.74875 38.66125 18.8725 40 19 C41.31157516 16.37684968 40.89649988 14.76966564 40.5625 11.875 C40.46066406 10.96492187 40.35882813 10.05484375 40.25390625 9.1171875 C40.17011719 8.41851562 40.08632813 7.71984375 40 7 C38.68942607 6.63877119 37.37646376 6.28619689 36.0625 5.9375 C34.96615234 5.64166016 34.96615234 5.64166016 33.84765625 5.33984375 C32.93306641 5.17162109 32.93306641 5.17162109 32 5 Z M77 5 C78 7 78 7 78 7 Z M51 6 C50.67 6.66 50.34 7.32 50 8 C50.66 8 51.32 8 52 8 C51.67 7.34 51.34 6.68 51 6 Z M55 6 C57.61941217 7.74627478 59.03824877 8.38722388 62 9 C60.7511573 7.4166747 60.7511573 7.4166747 59 6 C57.68 6 56.36 6 55 6 Z M3 7 C3 8.98 3 10.96 3 13 C3.33 13 3.66 13 4 13 C4 11.02 4 9.04 4 7 C3.67 7 3.34 7 3 7 Z M5 7 C5 9.97 5 12.94 5 16 C5.66 15.67 6.32 15.34 7 15 C7 12.69 7 10.38 7 8 C6.34 7.67 5.68 7.34 5 7 Z M8 7 C8.33 10.3 8.66 13.6 9 17 C10.32 16.67 11.64 16.34 13 16 C12.34 15.34 11.68 14.68 11 14 C10.28072705 11.68234271 9.6090107 9.34904126 9 7 C8.67 7 8.34 7 8 7 Z M20 7 C24 8 24 8 24 8 Z M44 7 C44 10.3 44 13.6 44 17 C44.33 17 44.66 17 45 17 C45 13.7 45 10.4 45 7 C44.67 7 44.34 7 44 7 Z M46 7 C46 9.64 46 12.28 46 15 C46.33 15 46.66 15 47 15 C47 12.36 47 9.72 47 7 C46.67 7 46.34 7 46 7 Z M29 8 C29 9.98 29 11.96 29 14 C29.33 14 29.66 14 30 14 C30 12.02 30 10.04 30 8 C29.67 8 29.34 8 29 8 Z M52 8 C51.67 8.66 51.34 9.32 51 10 C51.99 10.33 52.98 10.66 54 11 C54 10.01 54 9.02 54 8 C53.34 8 52.68 8 52 8 Z M75 8 C72.63307034 10.84826598 72.63307034 10.84826598 73.375 14.1875 C73.58125 15.115625 73.7875 16.04375 74 17 C76.29013653 13.5647952 76.17842973 12.014669 76 8 C75.67 8 75.34 8 75 8 Z M85 9 C86 11 86 11 86 11 Z M41 10 C42 14 42 14 42 14 Z M49 10 C50 14 50 14 50 14 Z M56 11 C57 13 57 13 57 13 Z M87 12 C87 15 87 15 87 15 Z M52 14 C53 16 53 16 53 16 Z M64 14 C65 16 65 16 65 16 Z M70 14 C71 17 71 17 71 17 Z M84 14 C83.67 14.66 83.34 15.32 83 16 C83.66 16.66 84.32 17.32 85 18 C84.67 16.68 84.34 15.36 84 14 Z M17 15 C18 17 18 17 18 17 Z M57 15 C57.66 15.66 58.32 16.32 59 17 C59 16.34 59 15.68 59 15 C58.34 15 57.68 15 57 15 Z M63 16 C64 18 64 18 64 18 Z M28 17 C28 17.66 28 18.32 28 19 C28.66 18.67 29.32 18.34 30 18 C29.34 17.67 28.68 17.34 28 17 Z M68 17 C68 17.66 68 18.32 68 19 C68.66 19 69.32 19 70 19 C70 18.34 70 17.68 70 17 C69.34 17 68.68 17 68 17 Z M55 18 C55 18.99 55 19.98 55 21 C55.99 20.67 56.98 20.34 58 20 C57.34 20 56.68 20 56 20 C55.67 19.34 55.34 18.68 55 18 Z M31 19 C31 19.66 31 20.32 31 21 C31.99 20.67 32.98 20.34 34 20 C33.01 19.67 32.02 19.34 31 19 Z M79 19 C79 19.66 79 20.32 79 21 C79.66 20.67 80.32 20.34 81 20 C80.34 19.67 79.68 19.34 79 19 Z M85 19 C86 21 86 21 86 21 Z M10 20 C14 21 14 21 14 21 Z " fill="#7A7D6A" transform="translate(0,0)"/>
<path d="M0 0 C5.64166991 -0.04940499 11.28321413 -0.08572193 16.92504883 -0.10986328 C18.84466749 -0.11992639 20.76427081 -0.13357816 22.68383789 -0.15087891 C25.44160752 -0.17511364 28.19917464 -0.18647992 30.95703125 -0.1953125 C32.24623222 -0.21079636 32.24623222 -0.21079636 33.56147766 -0.22659302 C34.36208115 -0.22674408 35.16268463 -0.22689514 35.98754883 -0.22705078 C36.6914827 -0.231492 37.39541656 -0.23593323 38.12068176 -0.24050903 C40 0 40 0 43 2 C43 1.34 43 0.68 43 0 C43.66 0 44.32 0 45 0 C45 7.59 45 15.18 45 23 C34.44 23 23.88 23 13 23 C14.32 21.35 15.64 19.7 17 18 C15.35 18.33 13.7 18.66 12 19 C11.443125 18.21625 10.88625 17.4325 10.3125 16.625 C8.25984719 13.81875882 8.25984719 13.81875882 5.375 13.25 C3 12 3 12 2.2734375 9.98828125 C1.77234278 7.66604378 1.38436433 5.34378681 1 3 C0.67 2.01 0.34 1.02 0 0 Z M20 1 C20.66 2.32 21.32 3.64 22 5 C22 3.68 22 2.36 22 1 C21.34 1 20.68 1 20 1 Z M28 1 C28.66 1.66 29.32 2.32 30 3 C30.33 2.34 30.66 1.68 31 1 C30.01 1 29.02 1 28 1 Z M43 3 C44 5 44 5 44 5 Z M16 4 C15.67 4.66 15.34 5.32 15 6 C15.99 5.67 16.98 5.34 18 5 C17.34 4.67 16.68 4.34 16 4 Z M33 5 C34 7 34 7 34 7 Z M7 6 C6.67 6.66 6.34 7.32 6 8 C6.66 8 7.32 8 8 8 C7.67 7.34 7.34 6.68 7 6 Z M11 6 C13.61941217 7.74627478 15.03824877 8.38722388 18 9 C16.7511573 7.4166747 16.7511573 7.4166747 15 6 C13.68 6 12.36 6 11 6 Z M8 8 C7.67 8.66 7.34 9.32 7 10 C7.99 10.33 8.98 10.66 10 11 C10 10.01 10 9.02 10 8 C9.34 8 8.68 8 8 8 Z M31 8 C28.63307034 10.84826598 28.63307034 10.84826598 29.375 14.1875 C29.58125 15.115625 29.7875 16.04375 30 17 C32.29013653 13.5647952 32.17842973 12.014669 32 8 C31.67 8 31.34 8 31 8 Z M41 9 C42 11 42 11 42 11 Z M12 11 C13 13 13 13 13 13 Z M43 12 C43 15 43 15 43 15 Z M20 14 C21 16 21 16 21 16 Z M26 14 C27 17 27 17 27 17 Z M40 14 C39.67 14.66 39.34 15.32 39 16 C39.66 16.66 40.32 17.32 41 18 C40.67 16.68 40.34 15.36 40 14 Z M13 15 C13.66 15.66 14.32 16.32 15 17 C15 16.34 15 15.68 15 15 C14.34 15 13.68 15 13 15 Z M18 16 C18.66 16.66 19.32 17.32 20 18 C20 17.34 20 16.68 20 16 C19.34 16 18.68 16 18 16 Z M24 17 C24 17.66 24 18.32 24 19 C24.66 19 25.32 19 26 19 C26 18.34 26 17.68 26 17 C25.34 17 24.68 17 24 17 Z M35 19 C35 19.66 35 20.32 35 21 C35.66 20.67 36.32 20.34 37 20 C36.34 19.67 35.68 19.34 35 19 Z M41 19 C42 21 42 21 42 21 Z " fill="#7A7E69" transform="translate(44,0)"/>
<path d="M0 0 C10.23 0 20.46 0 31 0 C29.02 0.99 29.02 0.99 27 2 C26.01 2.66 25.02 3.32 24 4 C23.67 3.34 23.34 2.68 23 2 C22.01 2.33 21.02 2.66 20 3 C20 3.66 20 4.32 20 5 C19.195625 5.144375 18.39125 5.28875 17.5625 5.4375 C15.07896294 5.74135249 15.07896294 5.74135249 14 7 C15.65 7.99 17.3 8.98 19 10 C18.5206753 14.31392226 17.2542015 16.16569547 14 19 C10.17216185 17.44051038 7.88905687 14.88905687 5 12 C4.34 12 3.68 12 3 12 C2.86722656 11.38511719 2.73445313 10.77023437 2.59765625 10.13671875 C2.42105469 9.32847656 2.24445312 8.52023437 2.0625 7.6875 C1.88847656 6.88699219 1.71445312 6.08648437 1.53515625 5.26171875 C1.00113841 2.854599 1.00113841 2.854599 0 0 Z M7 6 C6.67 6.66 6.34 7.32 6 8 C6.66 8 7.32 8 8 8 C7.67 7.34 7.34 6.68 7 6 Z M8 8 C7.67 8.66 7.34 9.32 7 10 C7.99 10.33 8.98 10.66 10 11 C10 10.01 10 9.02 10 8 C9.34 8 8.68 8 8 8 Z M12 11 C13 13 13 13 13 13 Z M13 15 C13.66 15.66 14.32 16.32 15 17 C15 16.34 15 15.68 15 15 C14.34 15 13.68 15 13 15 Z " fill="#6D705F" transform="translate(44,0)"/>
<path d="M0 0 C2.5 0.8125 2.5 0.8125 5.5 2.8125 C5.0206753 7.12642226 3.7542015 8.97819547 0.5 11.8125 C-2.83523252 10.43240379 -4.68607951 8.96299348 -6.5 5.8125 C-5.2257837 1.98985111 -4.33436176 -0.32507713 0 0 Z M-1.5 3.8125 C-0.5 5.8125 -0.5 5.8125 -0.5 5.8125 Z M-0.5 7.8125 C0.16 8.4725 0.82 9.1325 1.5 9.8125 C1.5 9.1525 1.5 8.4925 1.5 7.8125 C0.84 7.8125 0.18 7.8125 -0.5 7.8125 Z " fill="#000102" transform="translate(57.5,7.1875)"/>
<path d="M0 0 C1.32 0 2.64 0 4 0 C4.66 1.65 5.32 3.3 6 5 C5.05125 5.268125 4.1025 5.53625 3.125 5.8125 C-0.25267273 6.74986588 -0.25267273 6.74986588 -2 10 C-2.25 3.375 -2.25 3.375 0 0 Z " fill="#08080D" transform="translate(78,5)"/>
<path d="" fill="#7F826D" transform="translate(0,0)"/>
<path d="" fill="#04020D" transform="translate(0,0)"/>
<path d="" fill="#828572" transform="translate(0,0)"/>
<path d="" fill="#9DA08D" transform="translate(0,0)"/>
<path d="" fill="#80846D" transform="translate(0,0)"/>
<path d="" fill="#00000C" transform="translate(0,0)"/>
<path d="" fill="#81846F" transform="translate(0,0)"/>
<path d="" fill="#979A89" transform="translate(0,0)"/>
<path d="" fill="#808370" transform="translate(0,0)"/>
<path d="" fill="#81846F" transform="translate(0,0)"/>
<path d="" fill="#808370" transform="translate(0,0)"/>
<path d="" fill="#848774" transform="translate(0,0)"/>
<path d="" fill="#050505" transform="translate(0,0)"/>
</svg>
