<?xml version="1.0" encoding="UTF-8"?>
<svg version="1.1" xmlns="http://www.w3.org/2000/svg" width="277" height="182">
<path d="M0 0 C91.41 0 182.82 0 277 0 C277 60.06 277 120.12 277 182 C185.59 182 94.18 182 0 182 C0 121.94 0 61.88 0 0 Z " fill="#000000" transform="translate(0,0)"/>
<path d="M0 0 C11.52014615 6.71518723 20.5669846 16.81789714 26 29 C26.125 32.6875 26.125 32.6875 25 36 C24.80664062 36.67160156 24.61328125 37.34320313 24.4140625 38.03515625 C22.54102012 44.28230348 19.76145185 50.10392712 17 56 C11.39 56 5.78 56 0 56 C0 55.34 0 54.68 0 54 C0.66 54 1.32 54 2 54 C5.16649668 43.0303508 7.02635416 32.7559842 2 22 C1.01 21.34 0.02 20.68 -1 20 C-1 19.34 -1 18.68 -1 18 C-1.721875 17.731875 -2.44375 17.46375 -3.1875 17.1875 C-6 16 -6 16 -8.3125 14.3125 C-12.04934461 12.48752938 -15.14142507 12.76676919 -19 14 C-23.74462661 17.13324399 -25.55933574 20.00327365 -28 25 C-29.66696873 28.00315231 -31.39640735 30.96948242 -33.125 33.9375 C-33.60710938 34.76781738 -34.08921875 35.59813477 -34.5859375 36.45361328 C-38.9855716 44.0125899 -43.47531697 51.51542015 -48 59 C-48.53625 59.96164063 -49.0725 60.92328125 -49.625 61.9140625 C-50.305625 62.94660156 -50.305625 62.94660156 -51 64 C-51.66 64 -52.32 64 -53 64 C-52.02983434 55.60040786 -50.53445891 47.83818653 -48.08203125 39.74609375 C-46.62731318 34.70972325 -45.4598499 29.62116882 -44.30712891 24.50854492 C-42.70140416 17.45606322 -42.70140416 17.45606322 -40.1796875 15.81640625 C-36.58665878 13.86155503 -33.02899135 11.94819243 -29.25 10.375 C-26.05682461 9.11326955 -26.05682461 9.11326955 -23.5 7.5 C-21 6 -21 6 -17.625 4.5625 C-14.92863116 3.40027205 -12.90639208 2.3200899 -10.5 0.75 C-6.22800677 -1.38599662 -4.5908248 -1.08394475 0 0 Z " fill="#007C00" transform="translate(66,57)"/>
<path d="M0 0 C0 0.66 0 1.32 0 2 C-1.46759766 2.27263672 -1.46759766 2.27263672 -2.96484375 2.55078125 C-11.31841712 4.07089969 -11.31841712 4.07089969 -19.4375 6.5 C-23.90280297 8.10652044 -28.43364387 8.85308825 -33.09936523 9.66845703 C-40.3391077 10.97940417 -47.42369789 12.82660267 -54.54614258 14.65844727 C-63.09000748 16.83098191 -71.6816539 18.66471912 -80.33398438 20.35107422 C-81.28080078 20.53943848 -82.22761719 20.72780273 -83.203125 20.921875 C-84.03489258 21.08268555 -84.86666016 21.24349609 -85.72363281 21.40917969 C-88.02516932 21.91573247 -88.02516932 21.91573247 -90.04980469 23.06738281 C-92 24 -92 24 -96 24 C-96 24.66 -96 25.32 -96 26 C-96.62648437 26.17015625 -97.25296875 26.3403125 -97.8984375 26.515625 C-98.71570313 26.75796875 -99.53296875 27.0003125 -100.375 27.25 C-101.18710938 27.48203125 -101.99921875 27.7140625 -102.8359375 27.953125 C-105.52317465 29.2530881 -105.8520777 30.30814726 -107 33 C-107.94711015 34.13178344 -108.92789128 35.23609783 -109.9375 36.3125 C-112.86476099 39.63476488 -114.30140615 42.89506487 -116 47 C-116.95770883 48.41064235 -117.93894989 49.80546681 -118.9375 51.1875 C-122.00146341 55.61322492 -123.49621667 60.05899762 -125.0546875 65.1796875 C-126.27364921 68.8164245 -127.94659802 71.77322546 -130 75 C-135.28 75 -140.56 75 -146 75 C-145.20391772 71.81567089 -144.50464212 69.81496548 -142.99609375 67.015625 C-142.5889917 66.2529834 -142.18188965 65.4903418 -141.76245117 64.70458984 C-141.32521729 63.8945752 -140.8879834 63.08456055 -140.4375 62.25 C-137.10068518 55.99864569 -133.82932311 49.72663121 -130.6875 43.375 C-130.03574079 42.07132219 -129.38342213 40.76792387 -128.73046875 39.46484375 C-127.69960661 37.40079246 -126.67790719 35.33206122 -125.67578125 33.25390625 C-122.76197728 27.51342202 -119.0270124 23.95942008 -114 20 C-113.236875 19.278125 -112.47375 18.55625 -111.6875 17.8125 C-103.58281951 12.34655269 -94.37352897 11.3038389 -84.89892578 10.07617188 C-79.81720814 9.41674672 -74.86992508 8.61139543 -69.875 7.4375 C-63.88514674 6.07680734 -57.97612317 5.40499566 -51.87280273 4.84399414 C-44.83630838 4.16675495 -37.90870191 3.03349584 -30.9375 1.875 C-20.52268664 0.17071622 -10.53409605 -0.48995796 0 0 Z " fill="#007B00" transform="translate(247,38)"/>
<path d="M0 0 C5.83420949 1.02354553 8.7749234 5.30118944 12.5625 9.625 C13.13742188 10.27082031 13.71234375 10.91664062 14.3046875 11.58203125 C15.42292792 12.852759 16.53324957 14.13048686 17.63671875 15.4140625 C21.36197946 19.69093382 25.23148078 23.83902274 29.07568359 28.00878906 C30.57158533 29.634876 32.06168799 31.26611551 33.55078125 32.8984375 C38.4016674 38.20190511 43.30354246 43.40653852 48.4375 48.4375 C54.56047361 54.49871451 59.69503396 60.89006792 63.5625 68.625 C59.66849026 68.09438768 58.37735688 66.52946126 56 63.5 C52.10674335 58.88549731 47.89573101 56.0284738 42.6875 53.03515625 C41.98625 52.56980469 41.285 52.10445312 40.5625 51.625 C40.5625 50.965 40.5625 50.305 40.5625 49.625 C39.88316406 49.39554688 39.20382813 49.16609375 38.50390625 48.9296875 C34.80983268 47.29114757 31.75750919 45.11972567 28.5 42.75 C27.88833984 42.31558594 27.27667969 41.88117188 26.64648438 41.43359375 C24.00239881 39.52985214 21.62064172 37.68344507 19.31640625 35.3671875 C17.57945226 33.38386574 17.57945226 33.38386574 14.5625 32.625 C14.00046875 32.06039062 13.4384375 31.49578125 12.859375 30.9140625 C9.20198144 27.26910906 4.91603164 24.47752684 0.69921875 21.515625 C-1.04701472 20.26489809 -2.74678503 18.94981397 -4.4375 17.625 C-4.4375 16.965 -4.4375 16.305 -4.4375 15.625 C-6.0875 14.965 -7.7375 14.305 -9.4375 13.625 C-9.4375 12.965 -9.4375 12.305 -9.4375 11.625 C-10.035625 11.356875 -10.63375 11.08875 -11.25 10.8125 C-13.4375 9.625 -13.4375 9.625 -14.796875 8.01171875 C-16.34161841 6.3966854 -16.34161841 6.3966854 -18.49609375 6.6640625 C-19.28113281 6.85742188 -20.06617188 7.05078125 -20.875 7.25 C-21.75542969 7.46140625 -22.63585937 7.6728125 -23.54296875 7.890625 C-24.49816406 8.13296875 -25.45335937 8.3753125 -26.4375 8.625 C-27.46488281 8.84671875 -28.49226563 9.0684375 -29.55078125 9.296875 C-35.321228 10.59037489 -39.70028219 11.92765927 -44.4375 15.625 C-45.22125 16.0375 -46.005 16.45 -46.8125 16.875 C-56.21959196 23.14639464 -62.21156921 32.3357772 -66.4375 42.625 C-68.04574342 45.66116864 -69.73746773 48.63845681 -71.4375 51.625 C-75.7275 51.625 -80.0175 51.625 -84.4375 51.625 C-70.66041022 17.18227554 -70.66041022 17.18227554 -59.4375 11.625 C-56.67510761 10.85829517 -53.98796088 10.19952289 -51.1875 9.625 C-50.39899658 9.45621338 -49.61049316 9.28742676 -48.7980957 9.11352539 C-42.72405883 7.83481264 -36.62282009 6.73869325 -30.50317383 5.70361328 C-26.08612372 4.94818113 -21.73623875 4.040065 -17.375 3 C-11.58064249 1.62176552 -5.83484658 1.0608812 0 0 Z " fill="#007C00" transform="translate(209.4375,61.375)"/>
<path d="M0 0 C2.97 0 5.94 0 9 0 C8.62452033 5.16284549 7.79996912 9.93803272 6.49804688 14.95556641 C4.17759166 23.9362132 3.63955239 31.71847406 4 41 C10.27 41 16.54 41 23 41 C23 38.36 23 35.72 23 33 C23.99 33 24.98 33 26 33 C26 35.64 26 38.28 26 41 C47.78 41 69.56 41 92 41 C92 41.99 92 42.98 92 44 C77.48 44 62.96 44 48 44 C47.34 48.29 46.68 52.58 46 57 C45.67 58.32 45.34 59.64 45 61 C44.34 61 43.68 61 43 61 C42.875 55.25 42.875 55.25 44 53 C42.4221875 53.495 42.4221875 53.495 40.8125 54 C37.61126643 54.83966782 35.2588992 55.19750904 32 55 C31.34 53.68 30.68 52.36 30 51 C31.4540625 51.2784375 31.4540625 51.2784375 32.9375 51.5625 C33.948125 51.706875 34.95875 51.85125 36 52 C36.33 51.67 36.66 51.34 37 51 C39.33297433 50.95907063 41.66705225 50.95758277 44 51 C44 49.02 44 47.04 44 45 C37.73 44.67 31.46 44.34 25 44 C24.690625 46.0625 24.38125 48.125 24.0625 50.25 C23.51742181 53.88385458 22.97415762 57.45441732 22 61 C21.34 61 20.68 61 20 61 C20 59.02 20 57.04 20 55 C18.741875 55 17.48375 55 16.1875 55 C13.79166667 55 11.39583333 55 9 55 C9 54.01 9 53.02 9 52 C12.96 52 16.92 52 21 52 C21.33 49.69 21.66 47.38 22 45 C16.39 45 10.78 45 5 45 C4.5359375 48.403125 4.5359375 48.403125 4.0625 51.875 C3.125 58.75 3.125 58.75 2 61 C1.34 61 0.68 61 0 61 C0.33 59.02 0.66 57.04 1 55 C-3.95 55.33 -8.9 55.66 -14 56 C-14.66 55.01 -15.32 54.02 -16 53 C-15.34 53 -14.68 53 -14 53 C-13.67 50.36 -13.34 47.72 -13 45 C-14.65 44.67 -16.3 44.34 -18 44 C-18 43.01 -18 42.02 -18 41 C-13.38 41 -8.76 41 -4 41 C-5.77990881 33.9693602 -7.82756144 27.52201837 -11 21 C-11.33 21 -11.66 21 -12 21 C-12.99 24.96 -13.98 28.92 -15 33 C-17.31 33 -19.62 33 -22 33 C-22.30797408 25.61632139 -21.17530008 19.1141233 -19.5 11.9375 C-19.26152344 10.88111328 -19.02304688 9.82472656 -18.77734375 8.73632812 C-18.1934398 6.15547268 -17.60085212 3.57695245 -17 1 C-14.36 1 -11.72 1 -9 1 C-7.02 4.96 -5.04 8.92 -3 13 C-2.01 8.71 -1.02 4.42 0 0 Z " fill="#007700" transform="translate(136,117)"/>
<path d="M0 0 C3.96 0 7.92 0 12 0 C12.66 4.62 13.32 9.24 14 14 C14.61875 12.4325 15.2375 10.865 15.875 9.25 C17.13288446 6.06335936 18.46333657 3.07332686 20 0 C23.96 0 27.92 0 32 0 C30.97225742 11.04823273 29.19099108 21.35819966 26 32 C23.03 32 20.06 32 17 32 C17.33 29.36 17.66 26.72 18 24 C17.525625 25.134375 17.05125 26.26875 16.5625 27.4375 C15 31 15 31 14 32 C11.66702567 32.04092937 9.33294775 32.04241723 7 32 C6.34 28.7 5.68 25.4 5 22 C4.690625 23.464375 4.38125 24.92875 4.0625 26.4375 C3.125 30.875 3.125 30.875 2 32 C0.48071962 32.07179964 -1.04167482 32.08392007 -2.5625 32.0625 C-3.38878906 32.05347656 -4.21507812 32.04445312 -5.06640625 32.03515625 C-5.70449219 32.02355469 -6.34257813 32.01195312 -7 32 C-6.80664062 31.12859375 -6.61328125 30.2571875 -6.4140625 29.359375 C-5.11608465 23.42209017 -3.88048912 17.50495474 -2.9375 11.5 C-2.30087314 7.49834545 -1.47543596 3.79397817 0 0 Z " fill="#007C00" transform="translate(54,118)"/>
<path d="M0 0 C3.94398082 2.08361251 6.58727648 4.24687452 9 8 C8.3125 9.9375 8.3125 9.9375 7 12 C4.375 12.75 4.375 12.75 2 13 C1.443125 12.175 0.88625 11.35 0.3125 10.5 C-1.73626228 7.81107104 -1.73626228 7.81107104 -4.5 7.4375 C-7.77394997 8.17413874 -8.95568519 9.37159524 -11 12 C-12.45422808 15.51438453 -12.13894819 19.24839874 -12 23 C-11.67 23.66 -11.34 24.32 -11 25 C-7.7 25 -4.4 25 -1 25 C-1 24.01 -1 23.02 -1 22 C-3.31 22 -5.62 22 -8 22 C-7.125 16.125 -7.125 16.125 -6 15 C-3.64686445 14.92728259 -1.29166332 14.91629132 1.0625 14.9375 C2.35285156 14.94652344 3.64320313 14.95554688 4.97265625 14.96484375 C5.97167969 14.97644531 6.97070312 14.98804688 8 15 C7.03644647 25.55808656 7.03644647 25.55808656 6 30 C-1.06416272 32.80562491 -7.31936029 34.14415637 -14.8125 32.3125 C-17.69911529 30.58053083 -19.12519721 28.80257994 -21 26 C-22.01492252 20.48383017 -22.15305344 14.66057915 -19.89453125 9.44921875 C-14.91237762 2.35666224 -8.68271748 -1.1025673 0 0 Z " fill="#007B00" transform="translate(195,119)"/>
<path d="M0 0 C1.97909398 -0.02686553 3.95828971 -0.04633375 5.9375 -0.0625 C7.03964844 -0.07410156 8.14179688 -0.08570312 9.27734375 -0.09765625 C12 0 12 0 13 1 C13.22880648 2.86429339 13.39532145 4.73630574 13.53515625 6.609375 C13.62216797 7.75664063 13.70917969 8.90390625 13.79882812 10.0859375 C13.88583984 11.29507813 13.97285156 12.50421875 14.0625 13.75 C14.15337891 14.94367188 14.24425781 16.13734375 14.33789062 17.3671875 C14.70151626 22.25562842 15.05827744 27.09564187 15 32 C12.03 32 9.06 32 6 32 C5.67 29.69 5.34 27.38 5 25 C0.91898896 25.12321676 0.91898896 25.12321676 -3 26 C-3.639375 27.010625 -4.27875 28.02125 -4.9375 29.0625 C-7 32 -7 32 -9.23828125 32.39453125 C-11.51910111 32.37679548 -13.73487645 32.26136041 -16 32 C-12.90847931 23.75594483 -8.46184203 16.17491356 -4.09179688 8.56054688 C-3.51461914 7.54637695 -3.51461914 7.54637695 -2.92578125 6.51171875 C-2.40624878 5.60619263 -2.40624878 5.60619263 -1.8762207 4.68237305 C-0.85651671 2.83247606 -0.85651671 2.83247606 0 0 Z " fill="#007B00" transform="translate(156,118)"/>
<path d="M0 0 C8.25 0 16.5 0 25 0 C24 5 24 5 23 7 C17.72 7 12.44 7 7 7 C7 8.32 7 9.64 7 11 C13.93 11.495 13.93 11.495 21 12 C20 17 20 17 19 19 C14.05 19 9.1 19 4 19 C4 20.98 4 22.96 4 25 C8.95 25 13.9 25 19 25 C18 30 18 30 17 32 C9.08 32 1.16 32 -7 32 C-6.401875 28.761875 -5.80375 25.52375 -5.1875 22.1875 C-5.00598389 21.19129639 -4.82446777 20.19509277 -4.63745117 19.16870117 C-4.48252197 18.34345947 -4.32759277 17.51821777 -4.16796875 16.66796875 C-4.01610107 15.84578857 -3.8642334 15.0236084 -3.70776367 14.17651367 C-2.64549986 9.40896816 -1.28518497 4.71234487 0 0 Z " fill="#007D00" transform="translate(209,119)"/>
<path d="M0 0 C3.96 0 7.92 0 12 0 C13.56849397 7.20979999 14.52642807 14.27532173 15.125 21.625 C15.21136719 22.62917969 15.29773438 23.63335937 15.38671875 24.66796875 C15.59617283 27.11159966 15.80051757 29.55553841 16 32 C13.36 32 10.72 32 8 32 C7.34 29.69 6.68 27.38 6 25 C1.91435675 25.11544282 1.91435675 25.11544282 -2 26 C-4.08632697 28.91841857 -4.08632697 28.91841857 -5 32 C-7.64 32 -10.28 32 -13 32 C-12.40963642 27.40210953 -11.16963331 23.61569812 -9.3125 19.375 C-9.05065918 18.7754248 -8.78881836 18.17584961 -8.51904297 17.55810547 C-5.8861967 11.60087915 -2.96893348 5.79648918 0 0 Z " fill="#007B00" transform="translate(95,118)"/>
<path d="M0 0 C0.78375 0.02707031 1.5675 0.05414063 2.375 0.08203125 C4.29286981 0.15219722 6.2093076 0.25980246 8.125 0.375 C7.53918699 4.19640809 6.42537661 6.9714053 4.5 10.3125 C1.95254042 14.83856895 -0.44202248 19.41161148 -2.75 24.0625 C-3.06018066 24.68697021 -3.37036133 25.31144043 -3.68994141 25.95483398 C-4.41994192 27.42740701 -5.14772274 28.9010801 -5.875 30.375 C-6.535 30.375 -7.195 30.375 -7.875 30.375 C-8.20113281 29.26640625 -8.52726562 28.1578125 -8.86328125 27.015625 C-9.304259 25.55195417 -9.74568908 24.08841956 -10.1875 22.625 C-10.40083984 21.89539063 -10.61417969 21.16578125 -10.83398438 20.4140625 C-11.80532045 17.22460076 -12.56350854 14.78282177 -14.60546875 12.109375 C-15.875 10.375 -15.875 10.375 -15.61108398 8.46826172 C-12.94446135 0.88497069 -7.31909044 -0.48380428 0 0 Z " fill="#007B00" transform="translate(106.875,52.625)"/>
<path d="M0 0 C1.85625 0.0309375 1.85625 0.0309375 3.75 0.0625 C2.15381569 4.45620734 -0.03094401 8.35303867 -2.375 12.375 C-3.65375 14.581875 -4.9325 16.78875 -6.25 19.0625 C-11.86 19.0625 -17.47 19.0625 -23.25 19.0625 C-19.88990497 14.41006073 -16.39414506 9.95484433 -12.625 5.625 C-11.89023438 4.78066406 -11.15546875 3.93632813 -10.3984375 3.06640625 C-7.1037836 -0.00660729 -4.36068605 -0.0726781 0 0 Z " fill="#007700" transform="translate(123.25,31.9375)"/>
<path d="M0 0 C1.39456452 0.00667256 2.78911118 0.01863093 4.18359375 0.03515625 C4.89451172 0.03966797 5.60542969 0.04417969 6.33789062 0.04882812 C8.09899388 0.06064761 9.86005411 0.07858362 11.62109375 0.09765625 C8.78790633 5.86896397 5.773214 11.49388691 2.62109375 17.09765625 C-1.99890625 17.09765625 -6.61890625 17.09765625 -11.37890625 17.09765625 C-9.88457423 12.61466019 -8.73941323 9.9334801 -6.37890625 6.09765625 C-5.69923949 4.43624862 -5.0295172 2.77065584 -4.37890625 1.09765625 C-3.37890625 0.09765625 -3.37890625 0.09765625 0 0 Z " fill="#007D00" transform="translate(100.37890625,157.90234375)"/>
<path d="M0 0 C4.95 0 9.9 0 15 0 C13.60055195 3.49862011 12.48839466 6.01322404 10.5 9.0625 C8.79633907 11.68551454 7.41207224 14.17585552 6 17 C1.71 17 -2.58 17 -7 17 C-5.83642504 10.01855026 -3.49267612 6.09360514 0 0 Z " fill="#007D00" transform="translate(52,158)"/>
<path d="M0 0 C4.95 0 9.9 0 15 0 C13.68990468 2.64704909 12.37705236 5.2926656 11.0625 7.9375 C10.68931641 8.69224609 10.31613281 9.44699219 9.93164062 10.22460938 C9.57392578 10.94326172 9.21621094 11.66191406 8.84765625 12.40234375 C8.51773682 13.06741943 8.18781738 13.73249512 7.84790039 14.41772461 C7 16 7 16 6 17 C3.81360547 17.07258946 1.62499611 17.08373783 -0.5625 17.0625 C-2.35880859 17.04896484 -2.35880859 17.04896484 -4.19140625 17.03515625 C-5.11824219 17.02355469 -6.04507813 17.01195312 -7 17 C-5.1668733 11.00067626 -2.92678249 5.55079437 0 0 Z " fill="#007D00" transform="translate(75,158)"/>
<path d="M0 0 C1 3 1 3 0.0625 5.1875 C-0.288125 5.785625 -0.63875 6.38375 -1 7 C-1.66 7 -2.32 7 -3 7 C-3.226875 8.010625 -3.45375 9.02125 -3.6875 10.0625 C-4.94192292 14.27254953 -6.49476419 18.19581135 -10 21 C-13.08644086 21.58000231 -15.90024139 21.42545706 -19 21 C-13.57499556 13.09499354 -6.84261278 6.65987238 0 0 Z " fill="#007C00" transform="translate(138,9)"/>
<path d="M0 0 C3.96 0 7.92 0 12 0 C11.67 2.97 11.34 5.94 11 9 C7.04 9 3.08 9 -1 9 C-0.67 6.03 -0.34 3.06 0 0 Z " fill="#000000" transform="translate(126,161)"/>
<path d="M0 0 C1.2684375 0.2475 1.2684375 0.2475 2.5625 0.5 C6.09138856 1.01329288 9.43932689 1.07121346 13 1 C13 1.33 13 1.66 13 2 C9.17679443 3.42258812 6.08718695 4.24042276 2 4 C1.34 2.68 0.68 1.36 0 0 Z " fill="#007900" transform="translate(166,168)"/>
</svg>
