<svg width="250" height="52" viewBox="0 0 250 52" fill="none" xmlns="http://www.w3.org/2000/svg">
<path d="M0.028511 36.7558L1.67546 30.4017C2.1983 30.9746 2.89542 31.5041 3.76682 31.9902C4.65564 32.4763 5.60547 32.8669 6.61629 33.1621C7.64455 33.4399 8.6118 33.5787 9.51805 33.5787C10.5986 33.5787 11.4438 33.3791 12.0538 32.9798C12.6638 32.5631 12.9688 32.0076 12.9688 31.3131C12.9688 30.7402 12.7597 30.2628 12.3414 29.8808C11.9405 29.4815 11.3916 29.1343 10.6944 28.8392C10.0148 28.5267 9.25663 28.2228 8.42009 27.9277C7.28727 27.4937 6.1196 26.9902 4.91706 26.4173C3.73196 25.8444 2.72985 25.0631 1.91073 24.0735C1.09162 23.084 0.682061 21.7732 0.682061 20.1412C0.682061 18.5787 1.09162 17.2246 1.91073 16.0787C2.72985 14.9156 3.88881 14.0215 5.38762 13.3965C6.88643 12.7541 8.62923 12.4329 10.616 12.4329C13.8402 12.4329 17.0557 13.2402 20.2624 14.8548L18.1449 20.7662C17.5872 20.3322 16.8901 19.9329 16.0536 19.5683C15.217 19.1864 14.3543 18.8826 13.4655 18.6569C12.5941 18.4312 11.8098 18.3183 11.1127 18.3183C10.2587 18.3183 9.58777 18.4919 9.09978 18.8392C8.62923 19.1864 8.39395 19.6638 8.39395 20.2715C8.39395 20.7228 8.55951 21.1308 8.89065 21.4954C9.22178 21.8426 9.70976 22.1812 10.3546 22.511C11.0169 22.8235 11.8273 23.1621 12.7858 23.5267C13.9709 23.9607 15.1647 24.4815 16.3673 25.0892C17.5872 25.6794 18.6068 26.4781 19.4259 27.485C20.2624 28.4746 20.6807 29.794 20.6807 31.4433C20.6807 33.0579 20.2363 34.4728 19.3474 35.6881C18.476 36.9034 17.2387 37.8496 15.6353 38.5267C14.0493 39.1864 12.1845 39.5162 10.0409 39.5162C6.46816 39.5162 3.13069 38.5961 0.028511 36.7558Z" fill="white"/>
<path d="M24.485 39.5162V0.516247H31.8307V16.5842C33.6735 14.1922 36.3183 12.9962 39.765 12.9962C42.99 12.9962 45.5068 14.0102 47.3155 16.0382C49.1242 18.0489 50.0285 20.8656 50.0285 24.4882V39.5162H42.6828V26.4642C42.6828 24.2976 42.2136 22.6249 41.2751 21.4462C40.3367 20.2676 39.0228 19.6782 37.3336 19.6782C35.6102 19.6782 34.2622 20.2762 33.2896 21.4722C32.317 22.6682 31.8307 24.3322 31.8307 26.4642V39.5162H24.485Z" fill="white"/>
<path fill-rule="evenodd" clip-rule="evenodd" d="M86.4416 39.5162H93.9219V27.43C93.9219 25.8912 94.2173 24.5511 94.808 23.41C95.3988 22.2515 96.2329 21.3524 97.3102 20.7126C98.4048 20.0556 99.6733 19.6119 101.115 19.6119V12.9746C99.5029 13.079 98.052 13.6234 96.7628 14.3842C95.2685 15.266 94.0869 16.4937 93.2181 18.0671L92.9575 13.5802H86.4416V39.5162Z" fill="white"/>
<path d="M123.398 38.8611C121.414 39.659 119.49 40.0579 117.627 40.0579C115.694 40.0579 113.986 39.6503 112.503 38.8351C111.036 38.0026 109.889 36.8491 109.061 35.3748C108.232 33.8832 107.818 32.1661 107.818 30.2235V19.5565H103.289V12.8961H108.207V7.01625H115.246V12.8961H122.415V19.5565H115.246V28.8706C115.246 30.2928 115.634 31.4029 116.411 32.2008C117.187 32.9813 118.153 33.3715 119.309 33.3715C120.362 33.3715 121.388 33.042 122.389 32.3829L123.398 38.8611Z" fill="white"/>
<path d="M150.34 51.9746H142.46L147.816 38.9486L134.811 12.9746H143.155L151.319 30.4466L158.478 12.9746H166.333L150.34 51.9746Z" fill="white"/>
<path d="M133.724 39.5162H126.115V1.05791H133.724V39.5162Z" fill="white"/>
<path fill-rule="evenodd" clip-rule="evenodd" d="M59.2676 26.5162C59.2676 31.6019 63.4041 35.7246 68.5068 35.7246C73.6094 35.7246 77.7459 31.6019 77.7459 26.5162C77.7459 21.4306 73.6094 17.3079 68.5068 17.3079C63.4041 17.3079 59.2676 21.4306 59.2676 26.5162ZM68.5068 11.3496C60.1024 11.3496 53.2894 18.1399 53.2894 26.5162C53.2894 34.8926 60.1024 41.6829 68.5068 41.6829C76.9111 41.6829 83.7242 34.8926 83.7242 26.5162C83.7242 18.1399 76.9111 11.3496 68.5068 11.3496Z" fill="white"/>
<path d="M74.4564 25.5484C75.2192 25.9786 75.2192 27.0539 74.4564 27.4841L65.8752 32.3232C65.1124 32.7533 64.1589 32.2157 64.1589 31.3554L64.1589 21.6771C64.1589 20.8168 65.1124 20.2792 65.8752 20.7093L74.4564 25.5484Z" fill="white"/>
<path d="M74.4564 25.5484C75.2192 25.9786 75.2192 27.0539 74.4564 27.4841L65.8752 32.3232C65.1124 32.7533 64.159 32.2157 64.159 31.3554L64.159 21.6771C64.159 20.8168 65.1124 20.2792 65.8752 20.7093L74.4564 25.5484Z" fill="#F53434"/>
<path d="M200.326 13.1257C201.06 13.1257 201.696 13.2339 202.232 13.4504C202.777 13.6669 203.195 13.9741 203.487 14.3721C203.779 14.7701 203.925 15.2415 203.925 15.7861C203.925 16.3238 203.779 16.7952 203.487 17.2002C203.195 17.5982 202.777 17.9054 202.232 18.1219C201.696 18.3314 201.06 18.4361 200.326 18.4361H198.657V20.4576H196.739V13.1257H200.326ZM200.22 17.0535C200.796 17.0535 201.234 16.9453 201.534 16.7288C201.834 16.5054 201.984 16.1911 201.984 15.7861C201.984 15.3742 201.834 15.0599 201.534 14.8435C201.234 14.62 200.796 14.5083 200.22 14.5083H198.657V17.0535H200.22Z" fill="white"/>
<path d="M210.336 18.8865H206.489L205.755 20.4576H203.789L207.483 13.1257H209.377L213.083 20.4576H211.07L210.336 18.8865ZM209.733 17.5982L208.418 14.7911L207.104 17.5982H209.733Z" fill="white"/>
<path d="M219.223 20.4576L217.625 18.4152H215.861V20.4576H213.943V13.1257H217.53C218.264 13.1257 218.899 13.2339 219.436 13.4504C219.981 13.6669 220.399 13.9741 220.691 14.3721C220.983 14.7701 221.129 15.2415 221.129 15.7861C221.129 16.3308 220.979 16.8021 220.679 17.2002C220.387 17.5912 219.969 17.8915 219.424 18.1009L221.283 20.4576H219.223ZM219.188 15.7861C219.188 15.3742 219.038 15.0599 218.738 14.8435C218.438 14.62 218 14.5083 217.423 14.5083H215.861V17.064H217.423C218 17.064 218.438 16.9523 218.738 16.7288C219.038 16.5054 219.188 16.1911 219.188 15.7861Z" fill="white"/>
<path d="M224.25 14.5083H221.598V13.1257H228.82V14.5083H226.168V20.4576H224.25V14.5083Z" fill="white"/>
<path d="M237.218 20.5833C236.358 20.5833 235.58 20.4192 234.886 20.091C234.199 19.7629 233.658 19.3125 233.264 18.7399C232.877 18.1603 232.684 17.5109 232.684 16.7917C232.684 16.0724 232.877 15.4265 233.264 14.8539C233.658 14.2744 234.199 13.8205 234.886 13.4923C235.58 13.1641 236.358 13 237.218 13C238.078 13 238.852 13.1641 239.538 13.4923C240.225 13.8205 240.766 14.2744 241.16 14.8539C241.555 15.4265 241.752 16.0724 241.752 16.7917C241.752 17.5109 241.555 18.1603 241.16 18.7399C240.766 19.3125 240.225 19.7629 239.538 20.091C238.852 20.4192 238.078 20.5833 237.218 20.5833ZM237.218 19.1379C237.707 19.1379 238.149 19.0401 238.544 18.8446C238.938 18.6421 239.246 18.3628 239.467 18.0067C239.696 17.6506 239.811 17.2455 239.811 16.7917C239.811 16.3378 239.696 15.9328 239.467 15.5767C239.246 15.2205 238.938 14.9447 238.544 14.7492C238.149 14.5467 237.707 14.4454 237.218 14.4454C236.729 14.4454 236.287 14.5467 235.892 14.7492C235.497 14.9447 235.186 15.2205 234.957 15.5767C234.736 15.9328 234.625 16.3378 234.625 16.7917C234.625 17.2455 234.736 17.6506 234.957 18.0067C235.186 18.3628 235.497 18.6421 235.892 18.8446C236.287 19.0401 236.729 19.1379 237.218 19.1379Z" fill="white"/>
<path d="M245.112 14.4873V16.4251H248.947V17.7867H245.112V20.4576H243.194V13.1257H249.457V14.4873H245.112Z" fill="white"/>
<path d="M229.351 25.2254V39.3088H237.503V36.5641H232.348V33.6394H236.799V30.8948H232.348V27.9701H237.503V25.2254H229.351Z" fill="white"/>
<path d="M217.394 25.2316V39.3088H224.89L227.177 37.2295V27.3047L224.89 25.2254L217.394 25.2316ZM224.159 36.0936L223.647 36.5591H220.411V27.9751H223.64L224.152 28.4406V36.0936H224.159Z" fill="white"/>
<path d="M208.105 25.2254L205.981 27.2994V37.2348L208.105 39.3088H213.09L215.22 37.2348V31.6151H210.299V34.3597H212.41V36.0922L211.926 36.5641H209.268L208.792 36.0922V28.442L209.268 27.9701H211.926L212.41 28.442V29.746H215.22V27.2994L213.09 25.2254H208.105Z" fill="white"/>
<path d="M249.459 35.9896V25.2254H246.38V34.8542L244.47 36.5541H244.122L242.213 34.8542V25.2254H239.133V35.9896L242.847 39.2963L242.861 39.3088L242.875 39.2963H245.718L245.732 39.3088L245.745 39.2963L249.459 35.9896Z" fill="white"/>
<path d="M200.006 25.2254L196.742 28.4754H203.264L200.006 25.2254Z" fill="white"/>
<rect x="180.978" y="13" width="1.63043" height="26.5417" fill="white"/>
</svg>
