<?xml version="1.0" encoding="UTF-8"?>
<svg version="1.1" xmlns="http://www.w3.org/2000/svg" width="28" height="28">
<path d="M0 0 C9.24 0 18.48 0 28 0 C28 9.24 28 18.48 28 28 C18.76 28 9.52 28 0 28 C0 18.76 0 9.52 0 0 Z " fill="#FEFEFE" transform="translate(0,0)"/>
<path d="M0 0 C4.16098127 1.77063033 7.47290168 4.37455926 10.9375 7.25 C9.33526423 12.05670732 5.32984348 14.01710298 0.9375 16.25 C-4.86021069 16.72328251 -8.80871839 12.78042281 -13.0625 9.25 C-11.27675202 3.89275605 -5.53937069 0.45219353 0 0 Z " fill="#DFE1E8" transform="translate(15.0625,5.75)"/>
<path d="M0 0 C0.56332031 0.22171875 1.12664063 0.4434375 1.70703125 0.671875 C-0.01822917 1.6484375 -1.74348958 2.625 -3.46875 3.6015625 C-5.11279164 4.56616081 -6.70697463 5.61454559 -8.29296875 6.671875 C-8.29296875 7.331875 -8.29296875 7.991875 -8.29296875 8.671875 C-4.42060332 11.90194584 -4.42060332 11.90194584 0.39453125 12.546875 C2.92619358 11.68779549 2.92619358 11.68779549 5.70703125 9.671875 C6.69703125 10.001875 7.68703125 10.331875 8.70703125 10.671875 C2.95223771 15.59239374 2.95223771 15.59239374 -1.23046875 15.859375 C-5.5087134 14.20046381 -8.78212246 11.58569921 -12.29296875 8.671875 C-11.10001742 5.09302101 -10.04829813 4.49052591 -6.98046875 2.421875 C-5.81064453 1.60976562 -5.81064453 1.60976562 -4.6171875 0.78125 C-2.29296875 -0.328125 -2.29296875 -0.328125 0 0 Z " fill="#ADC3DB" transform="translate(14.29296875,6.328125)"/>
<path d="M0 0 C1.32 0 2.64 0 4 0 C4 0.66 4 1.32 4 2 C5.32 2 6.64 2 8 2 C7.67 2.99 7.34 3.98 7 5 C3.37 5 -0.26 5 -4 5 C-4 4.01 -4 3.02 -4 2 C-1.525 2.99 -1.525 2.99 1 4 C0.67 2.68 0.34 1.36 0 0 Z " fill="#E5BCAF" transform="translate(12,10)"/>
<path d="M0 0 C2.1875 2.5 2.1875 2.5 4 5 C3.01 5.495 3.01 5.495 2 6 C1.34 5.67 0.68 5.34 0 5 C0 4.34 0 3.68 0 3 C-1.32 3 -2.64 3 -4 3 C-3.67 4.32 -3.34 5.64 -3 7 C-5.475 6.01 -5.475 6.01 -8 5 C-3.375 0 -3.375 0 0 0 Z " fill="#F5F5F5" transform="translate(16,7)"/>
<path d="M0 0 C3.5786304 1.65167557 6.74820188 3.78286492 10 6 C9.67 6.99 9.34 7.98 9 9 C8.34 9 7.68 9 7 9 C6.67 8.01 6.34 7.02 6 6 C4.00628175 4.65729179 2.0065438 3.32346506 0 2 C0 1.34 0 0.68 0 0 Z " fill="#B0C5DC" transform="translate(16,7)"/>
<path d="M0 0 C-1.6875 1.5625 -1.6875 1.5625 -4 3 C-7.37036311 2.75925978 -8.58798021 2.41201979 -11 0 C-9.54263913 -0.19491452 -8.08405407 -0.38069358 -6.625 -0.5625 C-5.81289062 -0.66691406 -5.00078125 -0.77132813 -4.1640625 -0.87890625 C-2 -1 -2 -1 0 0 Z " fill="#F9F5F1" transform="translate(20,17)"/>
</svg>
